<svg width="140" height="41" viewBox="0 0 140 41" fill="none" xmlns="http://www.w3.org/2000/svg">
<path d="M13.9271 24.9219H8.02083L0 40.1118H27.9954L25.1973 34.7828L8.8138 34.7874L13.9271 24.9219Z" fill="#ACADB3"/>
<path d="M30.3594 19.6547L20.4746 0.966797L10.6172 19.7139H16.7604L20.4883 12.6268L24.1934 19.6547H30.3594Z" fill="#C22629"/>
<path d="M34.9798 40.1118H41.0547L38.5026 35.2838L35.5723 29.7089H35.554L33.0247 24.9219H26.9818H20.1276L17.5391 30.0732H29.6934L34.9798 40.1118Z" fill="white"/>
<path d="M61.7526 37.2129L62.8464 35.3227H75.9531L77.0469 37.2129L78.7012 40.0778H83.2585L71.6875 20.0371H67.1302L55.5547 40.0778H60.112L61.7708 37.2129H61.7526ZM65.1296 31.3738L69.4043 23.986L73.6699 31.3738H65.1296Z" fill="white"/>
<path d="M139.994 20.041H130.082H126.135H116.219V23.9854H126.135V40.0817H130.082V23.9854H139.994V20.041Z" fill="white"/>
<path d="M93.1068 37.2122L95.3809 33.2724L100.754 23.9854L106.118 33.2724L108.396 37.2122L110.051 40.0817H114.608L103.033 20.041H98.4662L86.8906 40.0817H91.4434L93.1068 37.2122Z" fill="white"/>
<path fill-rule="evenodd" clip-rule="evenodd" d="M61.3854 5.83984H55.4609V13.6785H57.0241V6.92842H61.4037V5.83984H61.3854ZM84.8691 13.8197H85.0287C85.1916 13.8203 85.3544 13.8111 85.5163 13.7924C85.67 13.7761 85.8223 13.7487 85.972 13.7104C86.1114 13.6762 86.2472 13.6289 86.3776 13.5692C86.5099 13.5111 86.6365 13.441 86.7559 13.3597C86.8832 13.2736 87.0036 13.1777 87.1159 13.0727C87.2419 12.957 87.3592 12.8322 87.4668 12.6992C87.5853 12.5626 87.6992 12.4032 87.8177 12.2438C87.9362 12.0843 88.0547 11.8839 88.1686 11.679L91.5091 5.83984H89.8776C89.0482 7.3429 88.2096 8.84139 87.3893 10.3444C86.4779 8.83228 85.5072 7.33379 84.5729 5.83984H82.8548L86.5599 11.4922L86.528 11.5514C86.4824 11.638 86.4323 11.72 86.3822 11.7974C86.3338 11.8751 86.2805 11.9496 86.2227 12.0206C86.1102 12.1559 85.9799 12.2754 85.8353 12.3758C85.7609 12.4237 85.6832 12.4663 85.6029 12.5034C85.5222 12.5412 85.4383 12.5717 85.3522 12.5945C85.2596 12.6201 85.1651 12.6384 85.0697 12.6491C84.967 12.6637 84.8635 12.6713 84.7598 12.6719H84.6367H84.5091H84.377C84.2585 12.6719 84.1445 12.6309 84.026 12.6036V13.6967L84.1217 13.724L84.2494 13.7559L84.541 13.8151L84.7096 13.8379H84.8691V13.8197ZM100.282 6.92842H104.908V13.6785H106.475V5.83984H98.6003V13.6785H100.168V6.92842H100.282ZM116.497 6.92842H121.122V13.6785H122.69V5.83984H114.815V13.6785H116.383V6.92842H116.497ZM137.292 12.0707L138.13 13.6785H139.908L135.806 5.83984H134.07L129.968 13.6785H131.704L132.566 12.0069H137.305L137.337 12.0707H137.292ZM135.318 8.04887L135.633 8.67742L136.717 10.8546H133.072L134.895 7.21081L135.314 8.04887H135.318Z" fill="white"/>
<path d="M70.2949 9.32835H73.5853C73.9572 9.35574 74.3268 9.25088 74.6289 9.0323C74.7517 8.92637 74.8484 8.79363 74.9116 8.64436C74.9748 8.49509 75.0029 8.33328 74.9935 8.17146C75.0031 8.0129 74.9765 7.85424 74.9157 7.70747C74.8549 7.5607 74.7615 7.42966 74.6426 7.32429C74.3589 7.10684 74.0058 6.99999 73.6491 7.02368H70.2949V9.32835ZM70.2949 10.5718V13.7601H68.9688V5.78024H73.5853C74.3264 5.73074 75.0603 5.95255 75.6497 6.40424C75.8958 6.62159 76.0893 6.89194 76.2156 7.19491C76.3419 7.49788 76.3978 7.82556 76.3789 8.15324C76.3895 8.47924 76.3298 8.8037 76.204 9.10466C76.0782 9.40562 75.8892 9.67607 75.6497 9.89769C75.1269 10.3618 74.4434 10.6037 73.7448 10.5718H70.2949Z" fill="white"/>
</svg>
