<svg width="200" height="81" viewBox="0 0 200 81" fill="none" xmlns="http://www.w3.org/2000/svg">
<g clip-path="url(#clip0_10_39)">
<path d="M70.8189 52.1006H67.4308V49.3086C64.2311 49.1627 61.8942 48.3106 60.4198 46.7522C58.9455 45.1944 58.2083 42.9201 58.2083 39.9294C58.2083 37.0227 58.9612 34.8164 60.4669 33.3105C61.9725 31.8043 64.2938 30.9781 67.4308 30.8318V28.6677H70.8189V30.8318C73.9557 30.9789 76.2771 31.8051 77.783 33.3105C79.2886 34.816 80.0414 37.0223 80.0414 39.9294C80.0414 42.9201 79.3042 45.1944 77.8298 46.7522C76.3555 48.3105 74.0185 49.1627 70.8189 49.3086V52.1006ZM67.4308 46.4541V33.7493C65.2766 33.8333 63.7656 34.3876 62.8978 35.4121C62.0299 36.4368 61.5959 37.9948 61.5961 40.0861C61.5961 42.1361 62.0405 43.689 62.9294 44.7447C63.8179 45.8007 65.3183 46.3705 67.4308 46.4541V46.4541ZM70.8189 33.7493V46.4541C72.9308 46.3707 74.4313 45.8009 75.3203 44.7447C76.209 43.6888 76.6534 42.1359 76.6536 40.0861C76.6536 37.9952 76.2196 36.4372 75.3518 35.4121C74.4837 34.3874 72.9727 33.8331 70.8189 33.7493Z" fill="black"/>
<path d="M100.306 51.9439H96.7616L95.1931 47.4578H86.3782L84.8099 51.9439H81.2336L89.4211 29.6084H92.1504L100.306 51.9439ZM94.2833 44.5722L90.864 34.6593L87.3506 44.5722H94.2833Z" fill="black"/>
<path d="M119.285 45.6701C119.327 46.5178 119.187 47.3645 118.876 48.1542C118.565 48.9438 118.09 49.6582 117.481 50.2499C116.278 51.3791 114.631 51.9438 112.541 51.9439H103.506V29.6084H112.195C113.976 29.5227 115.723 30.1107 117.089 31.2554C117.701 31.8033 118.184 32.4798 118.504 33.2365C118.824 33.9931 118.973 34.8111 118.94 35.6319C118.991 36.6522 118.73 37.6639 118.192 38.5324C117.655 39.4009 116.865 40.085 115.929 40.4937C116.955 40.9032 117.829 41.621 118.43 42.5481C119.031 43.4753 119.33 44.5661 119.285 45.6701V45.6701ZM114.58 38.2042C115.203 37.5795 115.552 36.7334 115.552 35.8513C115.552 34.9692 115.203 34.1231 114.58 33.4984C113.825 32.8982 112.876 32.5967 111.913 32.6514H106.894V39.0512H111.913C112.876 39.1059 113.825 38.8044 114.58 38.2042V38.2042ZM114.878 47.9757C115.21 47.6541 115.471 47.2653 115.641 46.8353C115.811 46.4052 115.888 45.9437 115.866 45.4817C115.889 45.0219 115.812 44.5626 115.642 44.1349C115.471 43.7073 115.211 43.3215 114.878 43.0036C114.134 42.3669 113.173 42.0412 112.195 42.0942H106.894V48.901H112.195C113.176 48.9539 114.138 48.6219 114.878 47.9757V47.9757Z" fill="black"/>
<path d="M139.032 35.0046C139.324 36.914 139.445 38.8456 139.393 40.7765C139.445 42.7074 139.324 44.639 139.032 46.5484C138.747 47.8216 138.085 48.9799 137.135 49.8735C135.563 51.3258 133.502 52.1324 131.363 52.1324C129.223 52.1324 127.162 51.3258 125.591 49.8735C124.639 48.9801 123.978 47.8217 123.693 46.5484C123.401 44.639 123.28 42.7074 123.332 40.7765C123.28 38.8456 123.401 36.914 123.693 35.0046C123.979 33.7312 124.64 32.5727 125.591 31.6789C127.162 30.2269 129.223 29.4205 131.363 29.4205C133.502 29.4205 135.563 30.2269 137.135 31.6789C138.085 32.5729 138.746 33.7313 139.032 35.0046V35.0046ZM135.754 45.5129C135.963 43.9432 136.047 42.3594 136.005 40.7765C136.046 39.1881 135.962 37.5989 135.754 36.0236C135.627 35.1966 135.256 34.4265 134.688 33.8124C134.129 33.1837 133.403 32.7264 132.595 32.4934C131.786 32.2605 130.928 32.2615 130.121 32.4963C129.313 32.7311 128.588 33.19 128.031 33.82C127.473 34.4499 127.106 35.225 126.971 36.0554C126.763 37.62 126.679 39.1986 126.72 40.7765C126.679 42.349 126.763 43.9224 126.971 45.4817C127.104 46.3113 127.475 47.0847 128.037 47.7088C128.468 48.1554 128.985 48.5105 129.556 48.7531C130.128 48.9957 130.742 49.1207 131.363 49.1207C131.983 49.1207 132.598 48.9957 133.169 48.7531C133.74 48.5105 134.257 48.1554 134.688 47.7088C135.254 47.0993 135.625 46.3347 135.754 45.5129V45.5129Z" fill="black"/>
<path d="M158.074 31.5221C159.332 32.8253 160.034 34.5656 160.034 36.3766C160.034 38.1876 159.332 39.928 158.074 41.2311C157.378 41.8763 156.56 42.3763 155.669 42.7022C154.778 43.028 153.83 43.1731 152.882 43.129H147.8V51.9438H144.413V29.6084H152.882C153.832 29.5647 154.78 29.7115 155.672 30.0402C156.563 30.3689 157.38 30.8727 158.074 31.5221V31.5221ZM155.58 39.1295C156.266 38.38 156.647 37.4007 156.647 36.3846C156.647 35.3685 156.266 34.3892 155.58 33.6397C154.782 32.9496 153.747 32.5954 152.694 32.6513H147.8V40.1173H152.694C153.747 40.1734 154.782 39.8194 155.58 39.1295V39.1295Z" fill="black"/>
<path d="M180.457 51.9439H177.068V35.7255L167.061 51.9439H163.987V29.6084H167.375V45.7956L177.351 29.6084H180.457L180.457 51.9439Z" fill="black"/>
<path d="M199.999 32.6513H193.851V51.9439H190.463V32.6513H184.315V29.6084H199.999V32.6513Z" fill="black"/>
<path d="M62.4164 64.4659H61.2858V63.5343C60.4247 63.5651 59.5855 63.2591 58.9463 62.6813C58.4143 62.0467 58.1497 61.2302 58.2083 60.4042C58.1796 60.0044 58.2315 59.6028 58.361 59.2234C58.4904 58.844 58.6948 58.4945 58.9619 58.1955C59.6058 57.6389 60.435 57.3439 61.2858 57.3687V56.6462H62.4164V57.3687C63.2672 57.3439 64.0964 57.6389 64.7403 58.1955C65.0076 58.4944 65.212 58.8439 65.3415 59.2233C65.471 59.6028 65.523 60.0043 65.4943 60.4042C65.5529 61.2302 65.2882 62.0467 64.7562 62.6813C64.1169 63.2591 63.2776 63.5651 62.4164 63.5343V64.4659ZM61.2858 62.5817V58.342C61.009 58.3248 60.7316 58.3653 60.4713 58.4608C60.2109 58.5563 59.9731 58.7048 59.7731 58.8969C59.4873 59.3664 59.337 59.9059 59.3388 60.4555C59.3407 61.0052 59.4946 61.5436 59.7836 62.0111C59.9801 62.2061 60.2153 62.3577 60.4741 62.456C60.7329 62.5543 61.0094 62.5971 61.2858 62.5817V62.5817ZM62.4164 58.342V62.5817C62.6928 62.5971 62.9693 62.5543 63.2281 62.456C63.4869 62.3577 63.7221 62.2061 63.9186 62.0111C64.2077 61.5436 64.3618 61.0052 64.3636 60.4555C64.3655 59.9058 64.2151 59.3664 63.9291 58.8969C63.7291 58.7048 63.4913 58.5563 63.231 58.4608C62.9706 58.3653 62.6932 58.3248 62.4164 58.342V58.342Z" fill="black"/>
<path d="M74.1408 64.4137H72.9579L72.4345 62.9166H69.4929L68.9695 64.4137H67.7762L70.5083 56.9602H71.4192L74.1408 64.4137ZM72.1311 61.9535L70.99 58.6458L69.8174 61.9535H72.1311Z" fill="black"/>
<path d="M82.055 62.184C81.9681 62.8387 81.6463 63.4395 81.1495 63.8747C80.6572 64.281 80.0342 64.4948 79.3961 64.4764C79.0406 64.4888 78.6864 64.4283 78.3551 64.2987C78.0239 64.1691 77.7226 63.9731 77.4699 63.7228C77.1567 63.4201 76.9384 63.0326 76.8417 62.6078C76.6744 61.3327 76.6744 60.0412 76.8417 58.7661C76.9384 58.3413 77.1567 57.9539 77.4699 57.6511C77.9658 57.1939 78.6079 56.9277 79.2818 56.8999C79.9557 56.8721 80.6176 57.0845 81.1495 57.4993C81.6413 57.9383 81.9621 58.5372 82.055 59.1899H80.9034C80.8396 58.8284 80.6595 58.4976 80.3905 58.2478C80.0887 58.0056 79.7081 57.8834 79.3217 57.9046C78.9353 57.9259 78.5704 58.0891 78.297 58.363C78.1026 58.5702 77.9749 58.8309 77.9305 59.1115C77.8189 60.1588 77.8189 61.215 77.9305 62.2623C77.9749 62.543 78.1025 62.8038 78.297 63.0109C78.4365 63.1619 78.6068 63.2813 78.7965 63.3607C78.9861 63.4402 79.1906 63.478 79.3961 63.4716C79.7608 63.4856 80.1176 63.3623 80.3959 63.1261C80.6684 62.8768 80.8537 62.5466 80.9244 62.184H82.055Z" fill="black"/>
<path d="M90.8167 64.4137H89.634L89.1105 62.9166H86.1689L85.6455 64.4137H84.4521L87.1843 56.9602H88.0952L90.8167 64.4137ZM88.8071 61.9535L87.666 58.6458L86.4933 61.9535H88.8071Z" fill="black"/>
<path d="M94.8053 56.9602H99.0975V63.3983H99.9766V66.0888H98.867V64.4137H94.3446V66.0888H93.2455V63.3983H93.8947C94.5018 62.4562 94.8053 61.043 94.8053 59.1587V56.9602ZM95.8941 57.9756V59.6401C95.9545 60.9335 95.7031 62.2224 95.1612 63.3983H97.9669V57.9756H95.8941Z" fill="black"/>
<path d="M108.477 64.4137H107.336V61.1582H104.321V64.4137H103.19V56.9602H104.321V60.153H107.336V56.9602H108.477V64.4137Z" fill="black"/>
<path d="M116.872 60.5195C117.29 60.961 117.522 61.5459 117.521 62.1536C117.52 62.7612 117.286 63.3454 116.867 63.7856C116.637 63.9981 116.368 64.163 116.074 64.2708C115.78 64.3786 115.468 64.4272 115.155 64.4137H112.298V56.9602H113.428V59.8913H115.155C115.469 59.8768 115.782 59.9249 116.077 60.0328C116.372 60.1406 116.642 60.3061 116.872 60.5195V60.5195ZM116.38 62.1525C116.389 61.9847 116.362 61.8169 116.301 61.6601C116.241 61.5032 116.149 61.3608 116.03 61.2419C115.764 61.0068 115.416 60.8864 115.061 60.907H113.428V63.3983H115.061C115.415 63.4189 115.762 63.3006 116.03 63.0685C116.149 62.9492 116.243 62.8059 116.303 62.648C116.363 62.4902 116.39 62.3213 116.38 62.1525ZM119.552 64.4137H118.421V56.9602H119.552V64.4137Z" fill="black"/>
<path d="M128.157 64.4137H123.384V56.9602H128.157V57.9756H124.514V60.153H127.613V61.1582H124.514V63.3983H128.157V64.4137Z" fill="black"/>
<path d="M145.44 62.184C145.353 62.8386 145.031 63.4392 144.535 63.8747C144.042 64.2809 143.419 64.4948 142.781 64.4764C142.425 64.4888 142.071 64.4283 141.74 64.2987C141.409 64.1691 141.107 63.9731 140.855 63.7228C140.541 63.4201 140.323 63.0326 140.227 62.6078C140.059 61.3328 140.059 60.0412 140.227 58.7661C140.323 58.3413 140.541 57.9539 140.855 57.6511C141.351 57.1939 141.993 56.9277 142.667 56.8999C143.341 56.8721 144.003 57.0845 144.535 57.4993C145.026 57.9386 145.347 58.5373 145.44 59.1899H144.288C144.224 58.8285 144.044 58.4977 143.776 58.2478C143.474 58.0056 143.093 57.8834 142.707 57.9046C142.32 57.9259 141.955 58.0891 141.682 58.363C141.487 58.5703 141.36 58.831 141.315 59.1115C141.204 60.1589 141.204 61.215 141.315 62.2623C141.36 62.5429 141.487 62.8037 141.682 63.0109C141.821 63.1619 141.992 63.2812 142.181 63.3607C142.371 63.4402 142.575 63.478 142.781 63.4716C143.146 63.4856 143.502 63.3624 143.781 63.1261C144.053 62.8768 144.238 62.5466 144.309 62.184H145.44Z" fill="black"/>
<path d="M154.328 64.4137H153.197V59.0017L149.857 64.4137H148.832V56.9602H149.962V62.362L153.291 56.9602H154.328V64.4137Z" fill="black"/>
<path d="M163.226 62.184C163.138 62.8385 162.817 63.4392 162.32 63.8747C161.828 64.2809 161.205 64.4947 160.567 64.4764C160.211 64.4888 159.857 64.4283 159.526 64.2987C159.194 64.1691 158.893 63.9731 158.64 63.7228C158.327 63.4201 158.109 63.0326 158.013 62.6078C157.845 61.3328 157.845 60.0412 158.013 58.7661C158.109 58.3413 158.327 57.9539 158.64 57.6511C159.136 57.1939 159.779 56.9277 160.453 56.8999C161.127 56.8721 161.788 57.0845 162.32 57.4993C162.812 57.9386 163.133 58.5373 163.226 59.1899H162.074C162.01 58.8284 161.83 58.4977 161.561 58.2478C161.26 58.0056 160.879 57.8834 160.492 57.9046C160.106 57.9259 159.741 58.0891 159.468 58.363C159.273 58.5703 159.146 58.831 159.101 59.1115C158.99 60.1589 158.99 61.215 159.101 62.2623C159.146 62.5429 159.273 62.8036 159.468 63.0109C159.607 63.1619 159.777 63.2812 159.967 63.3607C160.157 63.4402 160.361 63.478 160.567 63.4716C160.931 63.4856 161.288 63.3624 161.566 63.1261C161.839 62.8768 162.024 62.5466 162.095 62.184H163.226Z" fill="black"/>
<path d="M170.983 57.9756H168.931V64.4137H167.8V57.9756H165.748V56.9602H170.983V57.9756Z" fill="black"/>
<path d="M178.928 64.4137H174.154V56.9602H178.928V57.9756H175.285V60.153H178.383V61.1582H175.285V63.3983H178.928V64.4137Z" fill="black"/>
<path d="M188.925 64.4137H187.784V59.4309L186.067 63.0634H185.23L183.481 59.4309V64.4137H182.351V56.9602H183.471L185.648 61.5979L187.794 56.9602H188.925V64.4137Z" fill="black"/>
<path d="M197.32 60.5195C197.738 60.961 197.97 61.5459 197.969 62.1536C197.968 62.7612 197.734 63.3454 197.315 63.7856C197.086 63.9981 196.816 64.163 196.522 64.2708C196.229 64.3786 195.916 64.4272 195.604 64.4137H192.746V56.9602H193.876V59.8913H195.604C195.917 59.8768 196.23 59.9249 196.525 60.0327C196.82 60.1406 197.09 60.3061 197.32 60.5195ZM196.828 62.1525C196.837 61.9847 196.81 61.8169 196.75 61.6601C196.689 61.5032 196.597 61.3608 196.478 61.2419C196.212 61.0068 195.864 60.8864 195.509 60.907H193.876V63.3983H195.509C195.863 63.4189 196.21 63.3006 196.478 63.0685C196.598 62.9492 196.691 62.8059 196.751 62.648C196.812 62.4902 196.838 62.3213 196.828 62.1525ZM200 64.4137H198.87V56.9602H200V64.4137Z" fill="black"/>
<path d="M48.2841 16.5123L28.6058 0L8.927 16.5123V56.2356H48.2841V16.5123Z" fill="#FFA000"/>
<path d="M48.2845 16.5124L28.606 0L8.92743 16.5124V56.2354H48.2845V16.5124ZM45.5826 53.5336H11.6292V17.7722L28.606 3.52691L45.5826 17.7722V53.5336Z" fill="black"/>
<path d="M0 64.0918L19.6783 80.6047L39.3571 64.0918V24.369H0V64.0918Z" fill="white"/>
<path d="M0 64.0921L19.6784 80.6044L39.357 64.0921V24.369H0V64.0921ZM2.70182 27.0708H36.6552V62.8323L19.6784 77.0775L2.70182 62.8323V27.0708Z" fill="black"/>
<path d="M19.6789 32.5817L16.4205 35.3157V68.1322L19.6783 70.8662L22.9367 68.1322V35.3157L19.6789 32.5817Z" fill="black"/>
<path d="M25.3806 37.3661V60.3795L31.8968 54.9114V42.8341L25.3806 37.3661Z" fill="black"/>
<path d="M13.9765 37.3661L7.46033 42.8341V54.9114L13.9765 60.3795V37.3661Z" fill="black"/>
</g>
<defs>
<clipPath id="clip0_10_39">
<rect width="200" height="80.6045" fill="white"/>
</clipPath>
</defs>
</svg>
