<svg width="159" height="40" viewBox="0 0 159 40" fill="none" xmlns="http://www.w3.org/2000/svg">
<g clip-path="url(#clip0_1059_4118)">
<path d="M157.483 40.0702C157.706 39.4867 157.874 38.815 157.874 38.0667C157.874 36.0739 156.836 35.1273 155.597 35.1273C154.034 35.1273 153.589 36.1728 153.03 37.4612C152.819 37.9455 152.539 38.4852 151.914 38.4852C151.59 38.4852 151.088 38.2871 151.088 37.3288C151.088 36.7566 151.278 36.0959 151.468 35.6445L150.218 35.4794C149.961 36.1841 149.883 36.9547 149.883 37.6816C149.883 39.6851 151.3 40.1035 152.081 40.1035C153.186 40.1035 153.677 39.4757 154.258 38.32C154.615 37.6154 154.838 36.7676 155.653 36.7676C156.088 36.7676 156.59 37.1641 156.59 38.0005C156.59 38.5181 156.412 39.2887 156.122 39.9052L157.483 40.0702V40.0702ZM149.972 35.3693L154.593 32.5287H157.785V30.9656H154.615L149.972 28.1912V29.8426L152.717 31.4389L153.254 31.7029V31.7362L152.717 31.9785L149.972 33.5639V35.3693V35.3693ZM157.483 27.9602C157.706 27.3764 157.874 26.7051 157.874 25.9565C157.874 23.9637 156.836 23.0169 155.597 23.0169C154.034 23.0169 153.589 24.063 153.03 25.351C152.819 25.8353 152.539 26.3748 151.914 26.3748C151.59 26.3748 151.088 26.1765 151.088 25.2188C151.088 24.6466 151.278 23.9856 151.468 23.5341L150.218 23.3692C149.961 24.0731 149.883 24.8442 149.883 25.571C149.883 27.5745 151.3 27.9932 152.081 27.9932C153.186 27.9932 153.677 27.3655 154.258 26.2095C154.615 25.5051 154.838 24.6575 155.653 24.6575C156.088 24.6575 156.59 25.0534 156.59 25.8902C156.59 26.4078 156.412 27.1784 156.122 27.7952L157.483 27.9602V27.9602ZM149.972 22.7637H151.356V20.5395H157.785V18.9762H151.356V16.7528H149.972V22.7637ZM149.972 15.7075H157.785V11.1044H156.401V14.1434H154.403V11.3802H153.12V14.1434H151.356V11.1044H149.972V15.7075ZM157.785 4.38953L152.205 2.51765L151.088 2.16531V2.1325L152.294 2.15438H157.785V0.591096H149.972V3.23328L154.514 4.77468L155.899 5.11531V5.14891L154.514 5.49031L149.972 7.03172V9.67391H157.785V8.11063H152.294L151.088 8.13249V8.09969L152.205 7.74734L157.785 5.87546V4.38953" fill="#FAFAFA"/>
<path d="M115.07 0.378831V8.42883H126.633V40.0645H134.842V8.42883H146.404V0.378831H115.07" fill="#FAFAFA"/>
<path d="M89.9531 0.378831V40.0645H98.1139V23.2265H111.793V16.707H98.1139V8.42883H112.482V0.378831H89.9531Z" fill="#FAFAFA"/>
<path d="M58.4555 24.5874L64.0301 8.37259H64.1455L70.0648 24.5874H58.4555ZM59.7771 0.378831L43.7422 40.0645H52.4777L55.8691 31.1631H72.4791L75.8698 40.0645H85.0657L69.0878 0.378831H59.7771" fill="#FAFAFA"/>
<path d="M20.2115 24.3241L32.1335 40.0645H42.479L26.1969 20.221L42.479 0.378049H32.1335L20.2115 16.1179V11.9437H12.0508V28.2713H20.2115V24.3241" fill="#FAFAFA"/>
<path d="M0.375 20.2216V40.0645H20.1274V32.0142H8.53567V8.42937H20.1274V0.379367H0.375V20.2216" fill="#F15A29"/>
</g>
<defs>
<clipPath id="clip0_1059_4118">
<rect width="158.4" height="40" fill="white"/>
</clipPath>
</defs>
</svg>
