<svg width="171" height="28" viewBox="0 0 171 28" fill="none" xmlns="http://www.w3.org/2000/svg">
<g clip-path="url(#clip0_508_541)">
<rect width="28" height="28" rx="7.72414" fill="white"/>
<path fill-rule="evenodd" clip-rule="evenodd" d="M14.0253 6.70923H11.5781V11.6145H14.0253C15.3749 11.6145 16.4737 10.5132 16.4737 9.16246C16.4737 7.80933 15.3749 6.70923 14.0253 6.70923Z" fill="#BD1A1A"/>
<path fill-rule="evenodd" clip-rule="evenodd" d="M14.0291 14.0172H11.5819V16.4692H9.18407V4.30789H14.0291C16.7004 4.30789 18.8753 6.48519 18.8753 9.16254C18.8753 11.8399 16.7004 14.0172 14.0291 14.0172ZM18.8753 23.7771C18.8753 22.3203 18.2282 21.0142 17.2101 20.1238C18.2282 19.2333 18.8753 17.9272 18.8753 16.4692C18.8753 15.3089 18.4656 14.2425 17.7848 13.4075C17.1643 13.9581 16.4269 14.375 15.6099 14.6136C16.1365 15.0631 16.4775 15.7234 16.4775 16.4692C16.4775 17.8223 15.3798 18.9212 14.0303 18.9212H11.5819V17.2247H9.18407V23.6759H11.5819V21.3239H14.0291C15.3786 21.3239 16.4775 22.4252 16.4775 23.7771H18.8753ZM-0.046875 -0.034668V28.1196H28.1074V-0.034668H-0.046875Z" fill="#BD1A1A"/>
</g>
<path d="M33.4648 25.8053V2.19477H43.4968C43.7278 2.19477 44.0358 2.2057 44.4208 2.22756C44.8168 2.23849 45.1688 2.27128 45.4768 2.32594C46.8958 2.54455 48.0563 3.00911 48.9583 3.71961C49.8712 4.43012 50.5422 5.32645 50.9712 6.4086C51.4002 7.47982 51.6147 8.67674 51.6147 9.99937C51.6147 11.322 51.3947 12.5244 50.9547 13.6065C50.5257 14.6778 49.8547 15.5686 48.9418 16.2791C48.0398 16.9896 46.8848 17.4542 45.4768 17.6728C45.1688 17.7165 44.8168 17.7493 44.4208 17.7712C44.0248 17.793 43.7168 17.804 43.4968 17.804H37.9528V25.8053H33.4648ZM37.9528 13.6393H43.2988C43.5298 13.6393 43.7828 13.6284 44.0578 13.6065C44.3328 13.5847 44.5858 13.541 44.8168 13.4754C45.4218 13.3114 45.8893 13.0381 46.2193 12.6556C46.5493 12.262 46.7748 11.8303 46.8958 11.3603C47.0278 10.8793 47.0938 10.4257 47.0938 9.99937C47.0938 9.57307 47.0278 9.1249 46.8958 8.65488C46.7748 8.17392 46.5493 7.74216 46.2193 7.35958C45.8893 6.96607 45.4218 6.68733 44.8168 6.52337C44.5858 6.45779 44.3328 6.41406 44.0578 6.3922C43.7828 6.37034 43.5298 6.35941 43.2988 6.35941H37.9528V13.6393Z" fill="#111111"/>
<path d="M64.4646 26.2972C62.0886 26.2972 60.0371 25.7835 58.3101 24.756C56.5941 23.7285 55.2686 22.2911 54.3336 20.4438C53.4096 18.5965 52.9476 16.4485 52.9476 14C52.9476 11.5515 53.4096 9.40364 54.3336 7.55633C55.2686 5.70902 56.5941 4.27162 58.3101 3.24413C60.0371 2.21663 62.0886 1.70288 64.4646 1.70288C66.8405 1.70288 68.8865 2.21663 70.6025 3.24413C72.3295 4.27162 73.655 5.70902 74.579 7.55633C75.514 9.40364 75.9815 11.5515 75.9815 14C75.9815 16.4485 75.514 18.5965 74.579 20.4438C73.655 22.2911 72.3295 23.7285 70.6025 24.756C68.8865 25.7835 66.8405 26.2972 64.4646 26.2972ZM64.4646 22.0998C65.9715 22.1216 67.2255 21.7992 68.2265 21.1324C69.2275 20.4656 69.9755 19.5201 70.4705 18.2959C70.9765 17.0716 71.2295 15.6397 71.2295 14C71.2295 12.3604 70.9765 10.9394 70.4705 9.73703C69.9755 8.53464 69.2275 7.60006 68.2265 6.93328C67.2255 6.2665 65.9715 5.92217 64.4646 5.90031C62.9576 5.87845 61.7036 6.20091 60.7026 6.86769C59.7016 7.53447 58.9481 8.47998 58.4421 9.70424C57.9471 10.9285 57.6996 12.3604 57.6996 14C57.6996 15.6397 57.9471 17.0607 58.4421 18.2631C58.9481 19.4655 59.7016 20.4 60.7026 21.0668C61.7036 21.7336 62.9576 22.0779 64.4646 22.0998Z" fill="#111111"/>
<path d="M78.6153 25.8053V2.19477H83.1033V11.9013H93.7292V2.19477H98.2172V25.8053H93.7292V16.066H83.1033V25.8053H78.6153Z" fill="#111111"/>
<path d="M112.386 26.2972C110.01 26.2972 107.959 25.7835 106.232 24.756C104.516 23.7285 103.191 22.2911 102.256 20.4438C101.332 18.5965 100.87 16.4485 100.87 14C100.87 11.5515 101.332 9.40364 102.256 7.55633C103.191 5.70902 104.516 4.27162 106.232 3.24413C107.959 2.21663 110.01 1.70288 112.386 1.70288C115.114 1.70288 117.402 2.37513 119.25 3.71961C121.109 5.06411 122.418 6.88409 123.177 9.17956L118.656 10.4257C118.216 8.99373 117.474 7.88426 116.429 7.09724C115.384 6.29929 114.036 5.90031 112.386 5.90031C110.879 5.90031 109.62 6.2337 108.608 6.90048C107.607 7.56726 106.853 8.50731 106.347 9.72063C105.841 10.934 105.588 12.3604 105.588 14C105.588 15.6397 105.841 17.0661 106.347 18.2795C106.853 19.4928 107.607 20.4328 108.608 21.0996C109.62 21.7664 110.879 22.0998 112.386 22.0998C114.036 22.0998 115.384 21.7008 116.429 20.9029C117.474 20.1049 118.216 18.9954 118.656 17.5744L123.177 18.8205C122.418 21.116 121.109 22.936 119.25 24.2805C117.402 25.625 115.114 26.2972 112.386 26.2972Z" fill="#111111"/>
<path d="M136.347 26.2972C133.971 26.2972 131.92 25.7835 130.193 24.756C128.477 23.7285 127.151 22.2911 126.216 20.4438C125.292 18.5965 124.83 16.4485 124.83 14C124.83 11.5515 125.292 9.40364 126.216 7.55633C127.151 5.70902 128.477 4.27162 130.193 3.24413C131.92 2.21663 133.971 1.70288 136.347 1.70288C138.723 1.70288 140.769 2.21663 142.485 3.24413C144.212 4.27162 145.538 5.70902 146.462 7.55633C147.397 9.40364 147.864 11.5515 147.864 14C147.864 16.4485 147.397 18.5965 146.462 20.4438C145.538 22.2911 144.212 23.7285 142.485 24.756C140.769 25.7835 138.723 26.2972 136.347 26.2972ZM136.347 22.0998C137.854 22.1216 139.108 21.7992 140.109 21.1324C141.11 20.4656 141.858 19.5201 142.353 18.2959C142.859 17.0716 143.112 15.6397 143.112 14C143.112 12.3604 142.859 10.9394 142.353 9.73703C141.858 8.53464 141.11 7.60006 140.109 6.93328C139.108 6.2665 137.854 5.92217 136.347 5.90031C134.84 5.87845 133.586 6.20091 132.585 6.86769C131.584 7.53447 130.831 8.47998 130.325 9.70424C129.83 10.9285 129.582 12.3604 129.582 14C129.582 15.6397 129.83 17.0607 130.325 18.2631C130.831 19.4655 131.584 20.4 132.585 21.0668C133.586 21.7336 134.84 22.0779 136.347 22.0998Z" fill="#111111"/>
<path d="M150.498 25.8053V2.19477H154.986V11.9013H165.612V2.19477H170.1V25.8053H165.612V16.066H154.986V25.8053H150.498Z" fill="#111111"/>
<path d="M33.4648 25.8053V2.19477H43.4968C43.7278 2.19477 44.0358 2.2057 44.4208 2.22756C44.8168 2.23849 45.1688 2.27128 45.4768 2.32594C46.8958 2.54455 48.0563 3.00911 48.9583 3.71961C49.8712 4.43012 50.5422 5.32645 50.9712 6.4086C51.4002 7.47982 51.6147 8.67674 51.6147 9.99937C51.6147 11.322 51.3947 12.5244 50.9547 13.6065C50.5257 14.6778 49.8547 15.5686 48.9418 16.2791C48.0398 16.9896 46.8848 17.4542 45.4768 17.6728C45.1688 17.7165 44.8168 17.7493 44.4208 17.7712C44.0248 17.793 43.7168 17.804 43.4968 17.804H37.9528V25.8053H33.4648ZM37.9528 13.6393H43.2988C43.5298 13.6393 43.7828 13.6284 44.0578 13.6065C44.3328 13.5847 44.5858 13.541 44.8168 13.4754C45.4218 13.3114 45.8893 13.0381 46.2193 12.6556C46.5493 12.262 46.7748 11.8303 46.8958 11.3603C47.0278 10.8793 47.0938 10.4257 47.0938 9.99937C47.0938 9.57307 47.0278 9.1249 46.8958 8.65488C46.7748 8.17392 46.5493 7.74216 46.2193 7.35958C45.8893 6.96607 45.4218 6.68733 44.8168 6.52337C44.5858 6.45779 44.3328 6.41406 44.0578 6.3922C43.7828 6.37034 43.5298 6.35941 43.2988 6.35941H37.9528V13.6393Z" stroke="#111111" stroke-width="0.204953"/>
<path d="M64.4646 26.2972C62.0886 26.2972 60.0371 25.7835 58.3101 24.756C56.5941 23.7285 55.2686 22.2911 54.3336 20.4438C53.4096 18.5965 52.9476 16.4485 52.9476 14C52.9476 11.5515 53.4096 9.40364 54.3336 7.55633C55.2686 5.70902 56.5941 4.27162 58.3101 3.24413C60.0371 2.21663 62.0886 1.70288 64.4646 1.70288C66.8405 1.70288 68.8865 2.21663 70.6025 3.24413C72.3295 4.27162 73.655 5.70902 74.579 7.55633C75.514 9.40364 75.9815 11.5515 75.9815 14C75.9815 16.4485 75.514 18.5965 74.579 20.4438C73.655 22.2911 72.3295 23.7285 70.6025 24.756C68.8865 25.7835 66.8405 26.2972 64.4646 26.2972ZM64.4646 22.0998C65.9715 22.1216 67.2255 21.7992 68.2265 21.1324C69.2275 20.4656 69.9755 19.5201 70.4705 18.2959C70.9765 17.0716 71.2295 15.6397 71.2295 14C71.2295 12.3604 70.9765 10.9394 70.4705 9.73703C69.9755 8.53464 69.2275 7.60006 68.2265 6.93328C67.2255 6.2665 65.9715 5.92217 64.4646 5.90031C62.9576 5.87845 61.7036 6.20091 60.7026 6.86769C59.7016 7.53447 58.9481 8.47998 58.4421 9.70424C57.9471 10.9285 57.6996 12.3604 57.6996 14C57.6996 15.6397 57.9471 17.0607 58.4421 18.2631C58.9481 19.4655 59.7016 20.4 60.7026 21.0668C61.7036 21.7336 62.9576 22.0779 64.4646 22.0998Z" stroke="#111111" stroke-width="0.204953"/>
<path d="M78.6153 25.8053V2.19477H83.1033V11.9013H93.7292V2.19477H98.2172V25.8053H93.7292V16.066H83.1033V25.8053H78.6153Z" stroke="#111111" stroke-width="0.204953"/>
<path d="M112.386 26.2972C110.01 26.2972 107.959 25.7835 106.232 24.756C104.516 23.7285 103.191 22.2911 102.256 20.4438C101.332 18.5965 100.87 16.4485 100.87 14C100.87 11.5515 101.332 9.40364 102.256 7.55633C103.191 5.70902 104.516 4.27162 106.232 3.24413C107.959 2.21663 110.01 1.70288 112.386 1.70288C115.114 1.70288 117.402 2.37513 119.25 3.71961C121.109 5.06411 122.418 6.88409 123.177 9.17956L118.656 10.4257C118.216 8.99373 117.474 7.88426 116.429 7.09724C115.384 6.29929 114.036 5.90031 112.386 5.90031C110.879 5.90031 109.62 6.2337 108.608 6.90048C107.607 7.56726 106.853 8.50731 106.347 9.72063C105.841 10.934 105.588 12.3604 105.588 14C105.588 15.6397 105.841 17.0661 106.347 18.2795C106.853 19.4928 107.607 20.4328 108.608 21.0996C109.62 21.7664 110.879 22.0998 112.386 22.0998C114.036 22.0998 115.384 21.7008 116.429 20.9029C117.474 20.1049 118.216 18.9954 118.656 17.5744L123.177 18.8205C122.418 21.116 121.109 22.936 119.25 24.2805C117.402 25.625 115.114 26.2972 112.386 26.2972Z" stroke="#111111" stroke-width="0.204953"/>
<path d="M136.347 26.2972C133.971 26.2972 131.92 25.7835 130.193 24.756C128.477 23.7285 127.151 22.2911 126.216 20.4438C125.292 18.5965 124.83 16.4485 124.83 14C124.83 11.5515 125.292 9.40364 126.216 7.55633C127.151 5.70902 128.477 4.27162 130.193 3.24413C131.92 2.21663 133.971 1.70288 136.347 1.70288C138.723 1.70288 140.769 2.21663 142.485 3.24413C144.212 4.27162 145.538 5.70902 146.462 7.55633C147.397 9.40364 147.864 11.5515 147.864 14C147.864 16.4485 147.397 18.5965 146.462 20.4438C145.538 22.2911 144.212 23.7285 142.485 24.756C140.769 25.7835 138.723 26.2972 136.347 26.2972ZM136.347 22.0998C137.854 22.1216 139.108 21.7992 140.109 21.1324C141.11 20.4656 141.858 19.5201 142.353 18.2959C142.859 17.0716 143.112 15.6397 143.112 14C143.112 12.3604 142.859 10.9394 142.353 9.73703C141.858 8.53464 141.11 7.60006 140.109 6.93328C139.108 6.2665 137.854 5.92217 136.347 5.90031C134.84 5.87845 133.586 6.20091 132.585 6.86769C131.584 7.53447 130.831 8.47998 130.325 9.70424C129.83 10.9285 129.582 12.3604 129.582 14C129.582 15.6397 129.83 17.0607 130.325 18.2631C130.831 19.4655 131.584 20.4 132.585 21.0668C133.586 21.7336 134.84 22.0779 136.347 22.0998Z" stroke="#111111" stroke-width="0.204953"/>
<path d="M150.498 25.8053V2.19477H154.986V11.9013H165.612V2.19477H170.1V25.8053H165.612V16.066H154.986V25.8053H150.498Z" stroke="#111111" stroke-width="0.204953"/>
<defs>
<clipPath id="clip0_508_541">
<rect width="28" height="28" rx="7.72414" fill="white"/>
</clipPath>
</defs>
</svg>
