<?xml version="1.0" encoding="UTF-8"?> <svg xmlns="http://www.w3.org/2000/svg" width="145" height="26" viewBox="0 0 145 26" fill="none"> <path fill-rule="evenodd" clip-rule="evenodd" d="M38.6887 10.431L36.25 10.5166C36.2441 10.479 36.2351 10.4304 36.2235 10.371C36.2153 10.3275 36.1999 10.2607 36.1772 10.171C36.1728 10.1525 36.1627 10.1174 36.1471 10.0648C36.1412 10.045 36.1318 10.0149 36.1183 9.97488C36.1149 9.96541 36.1101 9.95049 36.1027 9.93007C36.0945 9.90649 36.0796 9.86818 36.0583 9.81535C36.0553 9.80841 36.0486 9.79263 36.0379 9.7682C36.0086 9.7019 35.9741 9.63414 35.9337 9.56446C35.9118 9.52659 35.8851 9.48535 35.8535 9.44072C35.8148 9.38411 35.7639 9.32285 35.7011 9.25699C35.669 9.22328 35.6305 9.18816 35.5859 9.15133C35.5454 9.11744 35.4922 9.07998 35.4257 9.03829C35.372 9.00484 35.3036 8.96968 35.2205 8.93286C35.1845 8.91726 35.1426 8.90085 35.094 8.88381C35.0389 8.86443 34.9793 8.84635 34.9153 8.82972C34.9027 8.82675 34.8882 8.82297 34.8712 8.81899C34.8314 8.8093 34.7891 8.80025 34.7443 8.79204C34.719 8.78721 34.6925 8.78257 34.6641 8.77816C34.6163 8.77077 34.5698 8.76427 34.5245 8.75922C34.5044 8.75699 34.4755 8.75395 34.4372 8.75039C34.4246 8.74927 34.408 8.74779 34.3865 8.74616C34.3737 8.74504 34.3564 8.74393 34.3351 8.74281C34.3141 8.74133 34.2867 8.73947 34.2535 8.73839C34.2204 8.73691 34.1851 8.73579 34.1472 8.73505C34.1104 8.73431 34.071 8.73394 34.0296 8.73431C33.9961 8.7345 33.9648 8.73505 33.9359 8.73579C33.922 8.73617 33.8978 8.73691 33.8629 8.73802C33.8463 8.73876 33.8227 8.74025 33.7918 8.74174C33.7762 8.74285 33.7564 8.74396 33.7322 8.74574C33.7198 8.74686 33.7044 8.74797 33.6861 8.74946C33.6733 8.75057 33.6577 8.75206 33.6394 8.75388C33.6196 8.75573 33.5992 8.75811 33.5782 8.76019C33.506 8.76861 33.4378 8.77853 33.3734 8.78989C33.3288 8.79724 33.2737 8.8086 33.2084 8.82375C33.1724 8.83217 33.135 8.84164 33.0965 8.85259C33.0529 8.86458 33.0022 8.8808 32.9443 8.90059C32.901 8.91596 32.8572 8.93278 32.8132 8.95153C32.7797 8.96541 32.7416 8.98308 32.6994 9.00413C32.6831 9.01193 32.6619 9.02307 32.6356 9.03717C32.6118 9.05024 32.588 9.06368 32.5649 9.0776C32.5268 9.10055 32.4887 9.12557 32.4504 9.15275C32.4142 9.1784 32.3816 9.20368 32.3527 9.22851C32.3092 9.26638 32.2732 9.30236 32.2444 9.33647C32.2212 9.36361 32.1985 9.3935 32.1764 9.42636C32.1675 9.44002 32.1574 9.45602 32.1467 9.47476C32.1288 9.50632 32.113 9.53833 32.0996 9.57074C32.0903 9.59305 32.0819 9.61618 32.0743 9.63975C32.0657 9.66693 32.059 9.69239 32.0535 9.71575C32.0485 9.73847 32.0438 9.76245 32.0402 9.7871C32.0358 9.81509 32.0324 9.85088 32.0301 9.89443C32.0275 9.93738 32.029 9.9885 32.0341 10.0476C32.0375 10.0832 32.0438 10.1213 32.0529 10.1621C32.0579 10.1844 32.0665 10.2152 32.0791 10.2537C32.0878 10.2781 32.0985 10.3051 32.1114 10.3337C32.1248 10.3652 32.1505 10.4105 32.1886 10.4696C32.2147 10.5101 32.2576 10.5614 32.3176 10.6239C32.3372 10.6435 32.3605 10.6652 32.3875 10.6885C32.4127 10.7102 32.4359 10.7287 32.4571 10.7443C32.4775 10.7591 32.5011 10.7755 32.5285 10.7929C32.6461 10.8689 32.8054 10.9483 33.0062 11.0302C33.2173 11.116 33.4677 11.2014 33.7568 11.2869C33.9332 11.3391 34.1163 11.3896 34.3061 11.4385C34.438 11.4724 34.6277 11.5195 34.8747 11.5793C35.0467 11.6224 35.2201 11.6683 35.3956 11.7169C35.4655 11.7363 35.5715 11.767 35.7142 11.8091C35.8462 11.8487 35.9802 11.891 36.1164 11.9365C36.1991 11.964 36.2885 11.995 36.3847 12.0299C36.4796 12.0638 36.5968 12.1092 36.7359 12.1661C36.8371 12.2077 36.9376 12.2523 37.0369 12.2995C37.1495 12.3525 37.2602 12.4113 37.3685 12.4752C37.427 12.5091 37.5041 12.5584 37.5996 12.6236C37.6644 12.6678 37.7406 12.7255 37.8282 12.7966C37.9165 12.8697 37.999 12.945 38.0759 13.0227C38.1765 13.1235 38.2722 13.2338 38.3631 13.3533C38.4559 13.475 38.5422 13.6074 38.6222 13.7507C38.7158 13.921 38.7937 14.1039 38.8564 14.2992C38.9336 14.5301 38.9894 14.814 39.0227 15.1512C39.0504 15.4513 39.0481 15.7489 39.0157 16.0442C38.9972 16.2164 38.9583 16.4079 38.8995 16.6186C38.8244 16.88 38.7175 17.1366 38.5786 17.3885C38.5214 17.4919 38.4586 17.5946 38.3894 17.6971C38.3177 17.8033 38.2287 17.9159 38.1139 18.0494C37.5678 18.6894 36.7147 19.1064 35.5545 19.2998C33.9774 19.5151 32.6436 19.3728 31.5528 18.8729C30.2445 18.2376 29.4782 17.0118 29.2539 15.1956L31.6252 14.9554C31.867 16.3584 32.5525 17.2212 34.0595 17.2993C34.5618 17.3188 35.0002 17.2675 35.3743 17.1452C35.6305 17.0621 35.8539 16.936 36.0448 16.7668C36.2388 16.5963 36.3845 16.4048 36.4815 16.1924C36.5486 16.0389 36.5878 15.8868 36.5985 15.7359C36.6065 15.5279 36.5928 15.372 36.5581 15.2686C36.4956 15.0718 36.4083 14.9182 36.2957 14.8081C36.1625 14.6827 36.0295 14.5879 35.8969 14.5234C35.6869 14.4204 35.508 14.347 35.3609 14.3028C35.0616 14.2121 34.8739 14.1567 34.7977 14.1369C34.413 14.0327 34.1767 13.9694 34.0885 13.9473C33.7573 13.862 33.5428 13.8067 33.445 13.7812C33.3267 13.7501 33.2303 13.7238 33.1556 13.7023C33.0325 13.6671 32.919 13.6331 32.8161 13.6004C32.685 13.559 32.5687 13.52 32.4662 13.4836C32.3488 13.4415 32.242 13.4013 32.1465 13.363C32.0983 13.3436 32.051 13.3243 32.0049 13.3047C31.9228 13.2692 31.8698 13.246 31.8458 13.2348C31.7513 13.1911 31.6911 13.1624 31.665 13.1489C31.5396 13.0869 31.4232 13.0231 31.3154 12.9581C31.2056 12.8905 31.1195 12.8337 31.0572 12.7874C30.9743 12.727 30.8958 12.6634 30.8224 12.5969C30.7254 12.5085 30.6342 12.4167 30.5486 12.3218C30.4469 12.2056 30.3712 12.1124 30.3217 12.0423C30.2384 11.9257 30.1733 11.8255 30.1264 11.7415C30.0645 11.6338 30.0086 11.5208 29.9587 11.4027C29.9187 11.3069 29.885 11.2156 29.8583 11.1289C29.8293 11.0327 29.8095 10.9611 29.7989 10.9138C29.7731 10.8005 29.7544 10.7014 29.7428 10.6159C29.7318 10.5349 29.7245 10.4682 29.7205 10.4164C29.7123 10.3097 29.7083 10.2162 29.7083 10.1356C29.708 10.0978 29.7083 10.0655 29.7086 10.039C29.7105 9.98683 29.7116 9.95041 29.7129 9.92981C29.7151 9.89294 29.7173 9.85886 29.7202 9.82772C29.7217 9.81005 29.7235 9.79048 29.7259 9.7688C29.7277 9.74964 29.7296 9.73446 29.7307 9.72332C29.7322 9.71259 29.7334 9.70186 29.735 9.69091C29.7406 9.64903 29.7448 9.6187 29.748 9.59999C29.7531 9.56862 29.7585 9.53643 29.7648 9.50358C29.7711 9.47035 29.7789 9.43245 29.7886 9.39057C29.796 9.35857 29.8031 9.3289 29.8101 9.30195C29.8185 9.26976 29.8271 9.23943 29.8351 9.21103C29.8448 9.1784 29.8553 9.14387 29.8673 9.10767C29.8789 9.07233 29.8905 9.03884 29.902 9.00707C29.9258 8.94269 29.9517 8.87828 29.9799 8.81387C29.9911 8.78862 30.0003 8.76839 30.0073 8.75369C30.0151 8.73661 30.0229 8.71998 30.0308 8.70379C30.035 8.69474 30.0399 8.68486 30.0452 8.67431C30.0478 8.66886 30.051 8.66255 30.0544 8.6556C30.0586 8.6474 30.0635 8.63789 30.0689 8.62717C30.0729 8.61959 30.0771 8.61139 30.0815 8.60319C30.0853 8.59584 30.0893 8.58804 30.094 8.57961C30.0999 8.56847 30.1053 8.55834 30.1106 8.54869C30.1161 8.539 30.1211 8.52971 30.1262 8.52047C30.131 8.51226 30.1356 8.50384 30.1403 8.49541C30.1441 8.48891 30.1481 8.48197 30.1523 8.47458C30.1594 8.46218 30.1661 8.45079 30.1725 8.44006C30.1771 8.43208 30.183 8.42239 30.1903 8.4104C30.2 8.39439 30.2131 8.37316 30.2299 8.34662C30.2484 8.31736 30.2632 8.29549 30.2735 8.28031C30.2825 8.26687 30.2914 8.2538 30.3004 8.2414C30.3067 8.23212 30.3143 8.22117 30.3236 8.20833C30.332 8.19633 30.3406 8.18475 30.349 8.17339C30.3579 8.1614 30.3669 8.14941 30.376 8.13741C30.3836 8.12732 30.3914 8.11741 30.3989 8.10775C30.4059 8.0991 30.413 8.08963 30.4212 8.07954C30.4303 8.06818 30.4397 8.05659 30.4492 8.04501C30.4572 8.03513 30.4664 8.02419 30.477 8.01197C30.485 8.00228 30.4925 7.99344 30.4995 7.98565C30.5062 7.97807 30.5132 7.97009 30.5205 7.96144C30.5263 7.95513 30.5315 7.94926 30.5368 7.94336C30.5456 7.93345 30.5542 7.92421 30.5624 7.91537C30.5738 7.90316 30.5843 7.8918 30.5946 7.88107C30.6024 7.87305 30.6104 7.86462 30.6182 7.85642C30.6273 7.84717 30.6359 7.83856 30.6437 7.83076C30.6578 7.81643 30.6729 7.80129 30.6895 7.78551C30.7013 7.77415 30.7133 7.76279 30.7257 7.75139C30.7352 7.74237 30.7457 7.73268 30.7575 7.72214C30.783 7.69879 30.8106 7.6748 30.8396 7.65015C30.8646 7.62891 30.8888 7.60913 30.9122 7.5906C30.9591 7.55292 31.0119 7.51334 31.0709 7.47169C31.1159 7.43991 31.1671 7.40601 31.2241 7.37004C31.2472 7.35549 31.275 7.33845 31.308 7.31911C31.3396 7.30058 31.3676 7.28458 31.392 7.2711C31.4238 7.25343 31.456 7.23617 31.4886 7.21932C31.5113 7.20755 31.5419 7.1924 31.5801 7.17347C31.6102 7.15873 31.6471 7.14165 31.69 7.12231C31.7967 7.0739 31.9173 7.02634 32.0514 6.9796C32.2045 6.92781 32.3426 6.8872 32.4659 6.85753C32.5871 6.82806 32.7004 6.80366 32.8056 6.78492C32.9051 6.7668 33.0081 6.75124 33.1137 6.73713C33.1817 6.72852 33.2444 6.72113 33.3018 6.71567C33.5693 6.68958 33.8319 6.67695 34.0891 6.67777C34.2171 6.67799 34.3393 6.68037 34.4555 6.68472C34.5784 6.6898 34.6914 6.69652 34.7943 6.70495C35.0014 6.72347 35.1489 6.73988 35.2371 6.75377C35.4288 6.78217 35.5883 6.81123 35.7157 6.84067C35.8476 6.87119 35.9589 6.90004 36.0494 6.9274C36.1163 6.94741 36.1767 6.96657 36.2304 6.98487C36.3325 7.01981 36.4255 7.05515 36.5097 7.09053C36.594 7.12632 36.6663 7.15936 36.726 7.18902C36.7833 7.21742 36.8306 7.24207 36.8681 7.26312C36.8904 7.2753 36.9108 7.2867 36.9289 7.2972C36.9499 7.30919 36.9716 7.32181 36.9943 7.33551C37.0854 7.39128 37.1595 7.44032 37.217 7.48201C37.2995 7.54219 37.366 7.59398 37.4163 7.63712C37.5518 7.75351 37.6674 7.86548 37.7629 7.97262C37.8067 8.02081 37.8519 8.07385 37.8984 8.13173C37.9405 8.18393 37.9818 8.23884 38.0226 8.29675C38.1074 8.41734 38.1819 8.53837 38.2463 8.6598C38.2764 8.71619 38.3065 8.77682 38.3359 8.84101C38.3557 8.88437 38.3723 8.92205 38.3858 8.95468C38.4136 9.0218 38.4376 9.08455 38.458 9.14283C38.4906 9.23587 38.5186 9.32575 38.5418 9.41243C38.5649 9.49726 38.5857 9.58777 38.6049 9.68311C38.6394 9.87612 38.66 10.0165 38.667 10.1051C38.6781 10.2274 38.6849 10.3231 38.6869 10.3924C38.6877 10.4105 38.6879 10.4232 38.6887 10.431ZM45.7016 19.1715L48.0712 19.1737L50.4188 9.51111L50.4272 19.1714H52.6809V6.90041H49.0202L46.8873 15.2696L44.729 6.90041H41.0768V19.1714H43.3301L43.3387 9.51111L45.7016 19.1715ZM57.4709 16.3779H62.2011L63.2024 19.1717L65.7819 19.1721L61.1059 6.90048H58.5669L53.8914 19.1714H56.4702L57.4709 16.3779ZM59.8365 9.76252L61.4428 14.3041H58.2108L59.8365 9.76252ZM84.538 8.9741L84.5399 19.1715H82.117V8.9741H78.5518V6.90052H88.1042V8.9741H84.538ZM75.1575 13.4342C75.1457 13.439 75.1358 13.4431 75.128 13.4464C75.0369 13.4833 74.9519 13.5144 74.8728 13.5407C74.7661 13.5758 74.6697 13.6047 74.583 13.627C74.4668 13.6575 74.3593 13.6826 74.2606 13.7019C74.2528 13.7038 74.2383 13.7063 74.2174 13.7104C74.2113 13.7115 74.1991 13.7141 74.1808 13.7173C74.1728 13.7188 74.1619 13.721 74.1474 13.7236C74.1322 13.7262 74.1118 13.7299 74.0855 13.7343C74.0611 13.7386 74.0381 13.7424 74.0171 13.7455C74.0002 13.7481 73.9786 13.7516 73.9521 13.7556C73.9584 13.7596 73.9645 13.7632 73.9701 13.7666C73.9853 13.7756 73.9988 13.7836 74.011 13.7912C74.0181 13.7956 74.0305 13.8032 74.0484 13.8141C74.06 13.8211 74.0752 13.8307 74.0935 13.8421C74.1006 13.8463 74.1109 13.8531 74.1246 13.8619C74.1419 13.8724 74.1575 13.8823 74.1716 13.8916C74.1787 13.896 74.1877 13.9017 74.1985 13.909C74.2067 13.9143 74.2189 13.9223 74.2347 13.9326C74.2385 13.9352 74.249 13.9421 74.2654 13.953C74.2713 13.957 74.2812 13.9638 74.2955 13.9732C74.31 13.9829 74.3366 14.0015 74.3755 14.0284C74.4033 14.0477 74.4295 14.0665 74.4548 14.0844C74.4771 14.1004 74.5078 14.1229 74.5461 14.1517C74.5683 14.1683 74.595 14.1887 74.6263 14.2129C74.6785 14.2534 74.7356 14.2997 74.797 14.3512C74.8494 14.3956 74.9018 14.4418 74.9538 14.4895C75.0382 14.5676 75.1148 14.6427 75.1834 14.7158C75.2362 14.7709 75.2937 14.8351 75.356 14.9086L75.5746 15.1837L75.8021 15.4975L76.0894 15.9224L76.5181 16.6006L77.3268 17.92L78.0947 19.1715H75.188C75.1278 19.0789 74.9565 18.8156 74.6874 18.402C74.5226 18.149 74.2134 17.6736 73.7597 16.976C73.4567 16.5027 73.1191 15.9974 72.7472 15.4602C72.6925 15.3805 72.5774 15.2226 72.4021 14.9873C72.2973 14.8461 72.1845 14.716 72.0637 14.5966C71.9278 14.4687 71.8028 14.3721 71.6889 14.3072C71.5359 14.2121 71.3463 14.146 71.1201 14.1086C70.8829 14.069 70.5942 14.0486 70.2541 14.0473L69.7027 14.0471V19.1715H67.2642V6.90052L72.5726 6.90127C73.0013 6.90799 73.3226 6.91957 73.5362 6.93598C73.7345 6.95009 73.9116 6.96631 74.0676 6.98546C74.2141 7.00269 74.362 7.02482 74.5118 7.05218C74.6116 7.07048 74.7002 7.08919 74.7781 7.10794C74.9243 7.1431 75.0519 7.18056 75.1605 7.22054C75.2865 7.26706 75.397 7.31524 75.4921 7.36555C75.5144 7.37691 75.5331 7.38705 75.5487 7.39544C75.5578 7.40049 75.5654 7.4049 75.5717 7.40828C75.5828 7.4144 75.5912 7.41923 75.5969 7.42261C75.6064 7.42807 75.614 7.43249 75.6196 7.43587C75.6304 7.44218 75.6388 7.447 75.6447 7.45061C75.6687 7.46534 75.6872 7.47688 75.7007 7.48554C75.7228 7.49964 75.7421 7.51227 75.7588 7.52363C75.7819 7.53918 75.8002 7.55184 75.8141 7.56194C75.8391 7.57984 75.8595 7.59454 75.8747 7.60634C75.8995 7.6255 75.9195 7.64087 75.9341 7.65264C75.9595 7.67305 75.9802 7.6901 75.9962 7.70379C76.0063 7.71241 76.0136 7.71894 76.0182 7.72295C76.0353 7.7381 76.0477 7.74905 76.0553 7.75577C76.0675 7.76694 76.0782 7.7766 76.0871 7.78484C76.1359 7.83091 76.178 7.87301 76.2137 7.9111C76.2556 7.95572 76.292 7.99656 76.3232 8.03361C76.373 8.09316 76.4175 8.15 76.4564 8.20365C76.5027 8.2685 76.5355 8.31669 76.5555 8.34784C76.597 8.4114 76.6361 8.47662 76.6732 8.54293C76.7062 8.60252 76.7325 8.6526 76.7523 8.69343C76.782 8.75298 76.8087 8.81131 76.8331 8.86896C76.8579 8.9281 76.8779 8.978 76.8931 9.01947C76.9069 9.05733 76.9196 9.09312 76.931 9.12702C76.9556 9.20234 76.9745 9.26527 76.988 9.3158C77.0084 9.39369 77.0221 9.44922 77.029 9.48226C77.0461 9.5629 77.0585 9.62709 77.0663 9.6755C77.0772 9.74389 77.0863 9.80703 77.0928 9.86491C77.0987 9.91711 77.1033 9.96593 77.1067 10.0116C77.1111 10.0674 77.1144 10.1284 77.1168 10.1947C77.1179 10.2269 77.1186 10.2501 77.1186 10.264C77.1194 10.2951 77.1194 10.3107 77.1194 10.3107C77.1194 10.3517 77.1194 10.3837 77.119 10.4069C77.1186 10.4385 77.1179 10.4711 77.1168 10.5043C77.1126 10.6241 77.1037 10.7411 77.0903 10.8546C77.073 10.9943 77.052 11.12 77.0265 11.2315C76.9962 11.3668 76.9596 11.495 76.9164 11.6161C76.883 11.7112 76.8468 11.8002 76.8081 11.8838C76.779 11.9465 76.7481 12.0088 76.7144 12.07C76.6679 12.1551 76.617 12.2382 76.5614 12.3197C76.5113 12.3935 76.4543 12.4693 76.3906 12.547C76.3482 12.5973 76.3104 12.6406 76.276 12.6771C76.2426 12.713 76.21 12.7463 76.1784 12.7768C76.1077 12.845 76.0439 12.9014 75.9873 12.9467C75.9246 12.9972 75.8709 13.0378 75.8261 13.0689C75.8057 13.0835 75.7859 13.0969 75.7672 13.1098C75.748 13.1224 75.727 13.1361 75.7043 13.151C75.686 13.1626 75.6719 13.1714 75.6622 13.1773C75.6481 13.1857 75.6346 13.1939 75.622 13.2017C75.6014 13.2142 75.5845 13.2238 75.5717 13.2314C75.5551 13.2407 75.5408 13.2487 75.5292 13.2552C75.509 13.2664 75.4902 13.2765 75.4734 13.2855C75.4462 13.3 75.4263 13.3101 75.4138 13.3165C75.3945 13.3263 75.3766 13.335 75.3602 13.3432C75.333 13.3562 75.3112 13.3668 75.2935 13.3746C75.2644 13.388 75.2413 13.3985 75.2238 13.4061C75.1944 13.4187 75.1725 13.428 75.158 13.4341L75.1575 13.4342ZM74.4243 11.3285C74.3871 11.3918 74.3582 11.437 74.3374 11.4646C74.3182 11.4918 74.294 11.5225 74.2652 11.5564C74.2301 11.597 74.193 11.6349 74.1539 11.67C74.1139 11.7054 74.0808 11.7321 74.0554 11.7505C74.0175 11.7782 73.9782 11.8039 73.9369 11.8279C73.9062 11.8456 73.8719 11.8635 73.8342 11.8818C73.8083 11.894 73.7759 11.9079 73.7365 11.9235C73.6976 11.9388 73.6568 11.9521 73.6141 11.9632C73.5758 11.9733 73.5345 11.9822 73.4906 11.9904C73.4649 11.9954 73.4278 12.0013 73.379 12.0089C73.2041 12.0331 73.0192 12.0506 72.8241 12.0615C72.6814 12.0704 72.5162 12.0775 72.3287 12.0828C72.2401 12.0854 72.0953 12.0885 71.8939 12.0914C71.7969 12.0925 71.6365 12.0933 71.4126 12.0936C71.3773 12.0936 71.3238 12.0936 71.2529 12.0936H69.7027V8.97421L71.8467 8.97458C71.9431 8.97481 72.0073 8.97533 72.0393 8.97533C72.1909 8.97607 72.3099 8.97718 72.3973 8.97793C72.5063 8.97978 72.5747 8.98052 72.6025 8.98089C72.747 8.98349 72.8533 8.98594 72.9215 8.98847C73.0029 8.99107 73.084 8.99437 73.1646 8.99879C73.2427 9.00258 73.311 9.00844 73.37 9.01605C73.4222 9.02444 73.475 9.03517 73.528 9.04824C73.6031 9.06739 73.6675 9.08718 73.721 9.10738C73.7612 9.12234 73.8012 9.13915 73.8411 9.1579C73.8959 9.18356 73.9478 9.212 73.9969 9.24315C74.0566 9.28228 74.104 9.31721 74.1394 9.34817C74.1804 9.38288 74.2155 9.41637 74.245 9.44815C74.2778 9.48309 74.3077 9.51865 74.3347 9.55526C74.3561 9.58451 74.3723 9.60767 74.3828 9.62471C74.3997 9.65103 74.4113 9.67019 74.418 9.68218C74.4336 9.70932 74.4441 9.7287 74.4493 9.74006C74.4723 9.78424 74.4929 9.8312 74.5114 9.88065C74.527 9.92253 74.5398 9.96211 74.5502 9.99934C74.5588 10.0301 74.5657 10.0583 74.5712 10.0842C74.5872 10.1614 74.5975 10.226 74.6023 10.2778C74.607 10.326 74.6099 10.366 74.6112 10.3982C74.6152 10.4904 74.6138 10.579 74.6075 10.664C74.6022 10.7415 74.5919 10.8206 74.5763 10.901C74.5591 10.9911 74.533 11.0812 74.4978 11.1713C74.4728 11.2329 74.4484 11.2851 74.4242 11.3281L74.4243 11.3285ZM120.357 10.431L117.919 10.5166C117.912 10.479 117.904 10.4304 117.892 10.371C117.884 10.3275 117.868 10.2607 117.846 10.171C117.841 10.1525 117.831 10.1174 117.816 10.0648C117.81 10.045 117.8 10.0149 117.787 9.97488C117.784 9.96541 117.778 9.95049 117.771 9.93007C117.763 9.90649 117.748 9.86818 117.727 9.81535C117.724 9.80841 117.717 9.79263 117.706 9.7682C117.677 9.7019 117.642 9.63414 117.602 9.56446C117.58 9.52659 117.553 9.48535 117.522 9.44072C117.483 9.38411 117.432 9.32285 117.37 9.25699C117.337 9.22328 117.299 9.18816 117.254 9.15133C117.214 9.11744 117.16 9.07998 117.094 9.03829C117.04 9.00484 116.972 8.96968 116.889 8.93286C116.853 8.91726 116.811 8.90085 116.762 8.88381C116.707 8.86443 116.648 8.84635 116.584 8.82972C116.571 8.82675 116.557 8.82297 116.54 8.81899C116.5 8.8093 116.458 8.80025 116.413 8.79204C116.387 8.78721 116.361 8.78257 116.333 8.77816C116.285 8.77077 116.238 8.76427 116.193 8.75922C116.173 8.75699 116.144 8.75395 116.106 8.75039C116.093 8.74927 116.076 8.74779 116.055 8.74616C116.042 8.74504 116.025 8.74393 116.004 8.74281C115.982 8.74133 115.955 8.73947 115.922 8.73839C115.889 8.73691 115.854 8.73579 115.816 8.73505C115.779 8.73431 115.74 8.73394 115.698 8.73431C115.665 8.7345 115.633 8.73505 115.605 8.73579C115.591 8.73617 115.566 8.73691 115.531 8.73802C115.515 8.73876 115.491 8.74025 115.46 8.74174C115.445 8.74285 115.425 8.74396 115.401 8.74574C115.388 8.74686 115.373 8.74797 115.355 8.74946C115.342 8.75057 115.326 8.75206 115.308 8.75388C115.288 8.75573 115.268 8.75811 115.246 8.76019C115.174 8.76861 115.106 8.77853 115.042 8.78989C114.997 8.79724 114.942 8.8086 114.877 8.82375C114.841 8.83217 114.803 8.84164 114.765 8.85259C114.721 8.86458 114.67 8.8808 114.613 8.90059C114.569 8.91596 114.526 8.93278 114.482 8.95153C114.448 8.96541 114.41 8.98308 114.368 9.00413C114.351 9.01193 114.33 9.02307 114.304 9.03717C114.28 9.05024 114.257 9.06368 114.233 9.0776C114.195 9.10055 114.157 9.12557 114.119 9.15275C114.082 9.1784 114.05 9.20368 114.021 9.22851C113.978 9.26638 113.941 9.30236 113.913 9.33647C113.889 9.36361 113.867 9.3935 113.845 9.42636C113.836 9.44002 113.826 9.45602 113.815 9.47476C113.797 9.50632 113.781 9.53833 113.768 9.57074C113.759 9.59305 113.75 9.61618 113.743 9.63975C113.734 9.66693 113.727 9.69239 113.722 9.71575C113.717 9.73847 113.713 9.76245 113.709 9.7871C113.704 9.81509 113.701 9.85088 113.698 9.89443C113.696 9.93738 113.697 9.9885 113.702 10.0476C113.706 10.0832 113.712 10.1213 113.721 10.1621C113.726 10.1844 113.735 10.2152 113.748 10.2537C113.756 10.2781 113.767 10.3051 113.78 10.3337C113.793 10.3652 113.819 10.4105 113.857 10.4696C113.883 10.5101 113.926 10.5614 113.986 10.6239C114.006 10.6435 114.029 10.6652 114.056 10.6885C114.081 10.7102 114.104 10.7287 114.126 10.7443C114.146 10.7591 114.17 10.7755 114.197 10.7929C114.315 10.8689 114.474 10.9483 114.675 11.0302C114.886 11.116 115.136 11.2014 115.425 11.2869C115.602 11.3391 115.785 11.3896 115.974 11.4385C116.107 11.4724 116.296 11.5195 116.543 11.5793C116.715 11.6224 116.889 11.6683 117.064 11.7169C117.134 11.7363 117.24 11.767 117.383 11.8091C117.515 11.8487 117.649 11.891 117.785 11.9365C117.867 11.964 117.957 11.995 118.053 12.0299C118.148 12.0638 118.265 12.1092 118.404 12.1661C118.506 12.2077 118.606 12.2523 118.705 12.2995C118.818 12.3525 118.929 12.4113 119.037 12.4752C119.096 12.5091 119.172 12.5584 119.268 12.6236C119.333 12.6678 119.409 12.7255 119.497 12.7966C119.585 12.8697 119.668 12.945 119.744 13.0227C119.845 13.1235 119.94 13.2338 120.032 13.3533C120.124 13.475 120.211 13.6074 120.29 13.7507C120.384 13.921 120.462 14.1039 120.525 14.2992C120.602 14.5301 120.657 14.814 120.691 15.1512C120.719 15.4513 120.717 15.7489 120.684 16.0442C120.666 16.2164 120.627 16.4079 120.568 16.6186C120.493 16.88 120.386 17.1366 120.247 17.3885C120.19 17.4919 120.127 17.5946 120.058 17.6971C119.986 17.8033 119.897 17.9159 119.782 18.0494C119.236 18.6894 118.383 19.1064 117.223 19.2998C115.646 19.5151 114.312 19.3728 113.221 18.8729C111.913 18.2376 111.147 17.0118 110.922 15.1956L113.294 14.9554C113.536 16.3584 114.221 17.2212 115.728 17.2993C116.23 17.3188 116.668 17.2675 117.043 17.1452C117.299 17.0621 117.522 16.936 117.713 16.7668C117.907 16.5963 118.053 16.4048 118.15 16.1924C118.217 16.0389 118.256 15.8868 118.267 15.7359C118.275 15.5279 118.261 15.372 118.226 15.2686C118.164 15.0718 118.077 14.9182 117.964 14.8081C117.831 14.6827 117.698 14.5879 117.565 14.5234C117.355 14.4204 117.176 14.347 117.029 14.3028C116.73 14.2121 116.542 14.1567 116.466 14.1369C116.081 14.0327 115.845 13.9694 115.757 13.9473C115.426 13.862 115.211 13.8067 115.113 13.7812C114.995 13.7501 114.899 13.7238 114.824 13.7023C114.701 13.6671 114.588 13.6331 114.484 13.6004C114.354 13.559 114.237 13.52 114.135 13.4836C114.017 13.4415 113.91 13.4013 113.815 13.363C113.767 13.3436 113.719 13.3243 113.673 13.3047C113.591 13.2692 113.538 13.246 113.514 13.2348C113.42 13.1911 113.36 13.1624 113.334 13.1489C113.208 13.0869 113.091 13.0231 112.984 12.9581C112.874 12.8905 112.788 12.8337 112.726 12.7874C112.643 12.727 112.564 12.6634 112.491 12.5969C112.394 12.5085 112.303 12.4167 112.217 12.3218C112.115 12.2056 112.04 12.1124 111.99 12.0423C111.907 11.9257 111.842 11.8255 111.795 11.7415C111.733 11.6338 111.677 11.5208 111.627 11.4027C111.587 11.3069 111.554 11.2156 111.527 11.1289C111.498 11.0327 111.478 10.9611 111.467 10.9138C111.441 10.8005 111.423 10.7014 111.411 10.6159C111.4 10.5349 111.393 10.4682 111.389 10.4164C111.381 10.3097 111.377 10.2162 111.377 10.1356C111.376 10.0978 111.377 10.0655 111.377 10.039C111.379 9.98683 111.38 9.95041 111.381 9.92981C111.384 9.89294 111.386 9.85886 111.389 9.82772C111.391 9.81005 111.392 9.79048 111.394 9.7688C111.397 9.74964 111.398 9.73446 111.399 9.72332C111.4 9.71259 111.402 9.70186 111.403 9.69091C111.409 9.64903 111.413 9.6187 111.417 9.59999C111.421 9.56862 111.427 9.53643 111.433 9.50358C111.44 9.47035 111.448 9.43245 111.457 9.39057C111.465 9.35857 111.472 9.3289 111.479 9.30195C111.487 9.26976 111.496 9.23943 111.504 9.21103C111.513 9.1784 111.524 9.14387 111.536 9.10767C111.548 9.07233 111.559 9.03884 111.571 9.00707C111.594 8.94269 111.62 8.87828 111.649 8.81387C111.66 8.78862 111.669 8.76839 111.676 8.75369C111.684 8.73661 111.691 8.71998 111.699 8.70379C111.704 8.69474 111.709 8.68486 111.714 8.67431C111.716 8.66886 111.719 8.66255 111.723 8.6556C111.727 8.6474 111.732 8.63789 111.737 8.62717C111.742 8.61959 111.746 8.61139 111.75 8.60319C111.754 8.59584 111.758 8.58804 111.762 8.57961C111.768 8.56847 111.774 8.55834 111.779 8.54869C111.784 8.539 111.79 8.52971 111.795 8.52047C111.799 8.51226 111.804 8.50384 111.809 8.49541C111.813 8.48891 111.816 8.48197 111.821 8.47458C111.828 8.46218 111.835 8.45079 111.841 8.44006C111.846 8.43208 111.852 8.42239 111.859 8.4104C111.868 8.39439 111.882 8.37316 111.899 8.34662C111.917 8.31736 111.932 8.29549 111.942 8.28031C111.951 8.26687 111.96 8.2538 111.969 8.2414C111.975 8.23212 111.983 8.22117 111.992 8.20833C112.001 8.19633 112.009 8.18475 112.017 8.17339C112.027 8.1614 112.036 8.14941 112.045 8.13741C112.052 8.12732 112.06 8.11741 112.068 8.10775C112.074 8.0991 112.082 8.08963 112.09 8.07954C112.099 8.06818 112.108 8.05659 112.118 8.04501C112.126 8.03513 112.135 8.02419 112.146 8.01197C112.154 8.00228 112.161 7.99344 112.168 7.98565C112.175 7.97807 112.182 7.97009 112.189 7.96144C112.195 7.95513 112.2 7.94926 112.205 7.94336C112.214 7.93345 112.223 7.92421 112.231 7.91537C112.242 7.90316 112.253 7.8918 112.263 7.88107C112.271 7.87305 112.279 7.86462 112.287 7.85642C112.296 7.84717 112.305 7.83856 112.312 7.83076C112.326 7.81643 112.342 7.80129 112.358 7.78551C112.37 7.77415 112.382 7.76279 112.394 7.75139C112.404 7.74237 112.414 7.73268 112.426 7.72214C112.452 7.69879 112.479 7.6748 112.508 7.65015C112.533 7.62891 112.557 7.60913 112.581 7.5906C112.628 7.55292 112.681 7.51334 112.74 7.47169C112.785 7.43991 112.835 7.40601 112.893 7.37004C112.916 7.35549 112.944 7.33845 112.976 7.31911C113.008 7.30058 113.036 7.28458 113.061 7.2711C113.092 7.25343 113.124 7.23617 113.157 7.21932C113.18 7.20755 113.21 7.1924 113.249 7.17347C113.279 7.15873 113.316 7.14165 113.359 7.12231C113.465 7.0739 113.586 7.02634 113.72 6.9796C113.873 6.92781 114.011 6.8872 114.135 6.85753C114.256 6.82806 114.369 6.80366 114.474 6.78492C114.574 6.7668 114.676 6.75124 114.782 6.73713C114.85 6.72852 114.913 6.72113 114.97 6.71567C115.238 6.68958 115.501 6.67695 115.758 6.67777C115.886 6.67799 116.008 6.68037 116.124 6.68472C116.247 6.6898 116.36 6.69652 116.463 6.70495C116.67 6.72347 116.818 6.73988 116.906 6.75377C117.097 6.78217 117.257 6.81123 117.384 6.84067C117.516 6.87119 117.627 6.90004 117.718 6.9274C117.785 6.94741 117.845 6.96657 117.899 6.98487C118.001 7.01981 118.094 7.05515 118.178 7.09053C118.262 7.12632 118.335 7.15936 118.394 7.18902C118.452 7.21742 118.499 7.24207 118.537 7.26312C118.559 7.2753 118.579 7.2867 118.598 7.2972C118.618 7.30919 118.64 7.32181 118.663 7.33551C118.754 7.39128 118.828 7.44032 118.886 7.48201C118.968 7.54219 119.035 7.59398 119.085 7.63712C119.22 7.75351 119.336 7.86548 119.432 7.97262C119.475 8.02081 119.521 8.07385 119.567 8.13173C119.609 8.18393 119.65 8.23884 119.691 8.29675C119.776 8.41734 119.851 8.53837 119.915 8.6598C119.945 8.71619 119.975 8.77682 120.005 8.84101C120.024 8.88437 120.041 8.92205 120.054 8.95468C120.082 9.0218 120.106 9.08455 120.127 9.14283C120.159 9.23587 120.187 9.32575 120.21 9.41243C120.233 9.49726 120.254 9.58777 120.273 9.68311C120.308 9.87612 120.329 10.0165 120.336 10.1051C120.347 10.2274 120.353 10.3231 120.356 10.3924C120.357 10.4105 120.357 10.4232 120.357 10.431ZM101.772 16.3779H106.502L107.503 19.1717L110.083 19.1721L105.407 6.90048H102.868L98.1924 19.1715H100.771L101.772 16.3779ZM104.137 9.76252L105.744 14.3041H102.512L104.137 9.76252ZM125.134 16.3779H129.864L130.865 19.1717L133.445 19.1721L128.769 6.90048H126.23L121.555 19.1714H124.133L125.134 16.3779ZM127.5 9.76252L129.106 14.3041H125.874L127.5 9.76252ZM92.4952 11.8877V8.9741H98.3494V6.90052H90.0753V19.1715H92.4961L92.4958 13.9615H97.559V11.8877H92.4952ZM140.245 6.92409C139.821 6.90264 139.392 6.89484 138.956 6.90052H137.348H134.928V19.1715H138.956C139.561 19.1786 140.036 19.1678 140.38 19.1388C140.9 19.094 141.316 19.0195 141.629 18.9151C141.929 18.8174 142.201 18.7048 142.446 18.5771C142.714 18.4348 142.939 18.2879 143.119 18.1366C143.33 17.9547 143.505 17.7769 143.645 17.6032C143.852 17.3414 144.002 17.1261 144.096 16.9573C144.256 16.6755 144.382 16.42 144.473 16.1908C144.591 15.8875 144.671 15.657 144.713 15.4991C144.836 15.018 144.91 14.6364 144.935 14.3546C144.979 13.9162 145 13.5794 145 13.3441C144.999 12.7441 144.984 12.3036 144.954 12.0224C144.897 11.4873 144.836 11.0912 144.771 10.8342C144.661 10.3921 144.547 10.041 144.429 9.78082C144.256 9.38073 144.063 9.03387 143.848 8.73962C143.645 8.45235 143.397 8.18018 143.104 7.92383C142.861 7.70981 142.557 7.51531 142.192 7.34001C141.838 7.17814 141.481 7.07037 141.122 7.01628C140.787 6.9662 140.494 6.93546 140.245 6.92409ZM142.463 13.9882C142.456 14.0831 142.45 14.1524 142.446 14.1957C142.442 14.2382 142.438 14.277 142.434 14.3127C142.428 14.363 142.422 14.4194 142.414 14.4815C142.41 14.5133 142.405 14.5474 142.4 14.5834C142.384 14.6889 142.367 14.7873 142.349 14.8789C142.333 14.9606 142.312 15.0538 142.285 15.1584C142.257 15.2598 142.229 15.3562 142.198 15.4474C142.174 15.5208 142.147 15.5953 142.117 15.6716C142.081 15.7623 142.044 15.8452 142.007 15.9199C141.977 15.9797 141.943 16.0428 141.902 16.1097C141.862 16.1786 141.806 16.2566 141.735 16.3442C141.669 16.4225 141.588 16.4989 141.493 16.5736C141.396 16.65 141.291 16.7184 141.176 16.7784C141.038 16.8487 140.904 16.9032 140.774 16.9424C140.627 16.9874 140.481 17.0192 140.336 17.0373C140.21 17.0543 140.066 17.0682 139.905 17.0779C139.53 17.0975 139.097 17.1042 138.605 17.0977L137.348 17.0988L137.347 8.97395L138.607 8.97432C138.933 8.97618 139.214 8.98171 139.45 8.99158C139.753 9.0038 140.006 9.02358 140.208 9.05054C140.509 9.09368 140.771 9.16986 140.995 9.27826C141.2 9.37698 141.377 9.49567 141.526 9.63418C141.586 9.68995 141.638 9.74381 141.682 9.79538C141.72 9.83896 141.751 9.87683 141.775 9.90924C141.823 9.97176 141.861 10.0267 141.891 10.0739C141.928 10.1325 141.956 10.1791 141.974 10.213C142.006 10.2696 142.031 10.3186 142.052 10.3609C142.082 10.4236 142.102 10.4674 142.112 10.4923C142.144 10.5666 142.169 10.6274 142.186 10.6749C142.217 10.7608 142.242 10.8318 142.259 10.8884C142.286 10.9778 142.306 11.0509 142.319 11.1077C142.341 11.2009 142.357 11.275 142.367 11.3302C142.378 11.391 142.387 11.4419 142.394 11.4832C142.411 11.5995 142.423 11.6863 142.429 11.7427C142.438 11.8195 142.445 11.8858 142.45 11.942C142.459 12.0401 142.466 12.1247 142.47 12.1956C142.477 12.304 142.481 12.3785 142.482 12.4191C142.489 12.5726 142.492 12.6991 142.494 12.7982C142.496 12.9988 142.496 13.1707 142.493 13.3143C142.483 13.65 142.474 13.8747 142.463 13.9882Z" fill="#F8F8F8"></path> <path fill-rule="evenodd" clip-rule="evenodd" d="M10.9056 0.000446554L11.3522 0L22.0452 6.23459C22.1814 6.31434 22.2576 6.45873 22.2577 6.60708H22.2588V19.087C22.2588 19.2617 22.1558 19.4122 22.0079 19.4802C18.4528 21.5529 14.8981 23.6265 11.343 25.6992C11.2155 25.7728 11.0538 25.7785 10.9174 25.6992L0.2501 19.4796C0.102616 19.4117 0 19.2613 0 19.087L0.000883883 6.60708C0.00103128 6.45873 0.0772495 6.31434 0.213546 6.23459L10.9056 0.000446554ZM10.7022 18.3416V12.847H10.7031C10.7034 12.6985 10.7794 12.5539 10.9158 12.4744L15.6288 9.72651L11.1294 7.10314L6.20571 9.97402V15.72L10.7022 18.3416ZM5.35114 9.97402L0.85464 7.35233V12.5991L5.35114 15.2207V9.97402ZM21.4042 18.3416V7.35217L16.9078 9.97385V15.72L21.4042 18.3416ZM16.0531 10.4731L11.5568 13.095V18.8399L16.4804 21.7106L20.9807 19.0869L16.2684 16.3394C16.1318 16.2601 16.0551 16.1155 16.055 15.967L16.0531 10.4731ZM15.6279 22.2067L0.85464 13.5932V18.8398L11.1286 24.83L15.6279 22.2067ZM10.7021 1.11327L6.20574 3.73504V8.98078L10.7021 6.35893V1.11327ZM1.27905 6.60761L5.35114 8.98179V4.23327L1.27905 6.60761ZM16.9061 8.9828L20.9798 6.60761L16.9061 4.23233V8.9828ZM16.0531 3.73504L11.5567 1.11327V6.36001L16.0531 8.9817V3.73504Z" fill="#F8F8F8"></path> </svg> 