<svg width="258" height="32" viewBox="0 0 258 32" fill="none" xmlns="http://www.w3.org/2000/svg">
    <path d="M100.266 7.99987H84.2655V32H68.2655V7.99987H52.2659V0H100.266V7.99987Z" fill="#9C1F2E"/>
    <path d="M32 23.9999V0H48V32H0V0H16V23.9999H32Z" fill="#9C1F2E"/>
    <path d="M241.065 32V19.9999H225.065V32H209.065V0H225.065V12.0001H241.065V0H257.065V32H241.065Z" fill="#9C1F2E"/>
    <path d="M120.533 7.99987V12.0001H142.823V19.9999H120.533V23.9999H152.533V32H104.533V0H152.533V7.99987H120.533Z" fill="#9C1F2E"/>
    <path d="M172.801 7.99987V23.9999H204.801V32H156.801V0H204.801V7.99987H172.801Z" fill="#9C1F2E"/>
    <path d="M100.266 7.99987H84.2655V32H68.2655V7.99987H52.2659V0H100.266V7.99987Z" fill="#9C1F2E"/>
    <path d="M32 23.9999V0H48V32H0V0H16V23.9999H32Z" fill="#9C1F2E"/>
    <path d="M241.065 32V19.9999H225.065V32H209.065V0H225.065V12.0001H241.065V0H257.065V32H241.065Z" fill="#9C1F2E"/>
    <path d="M120.533 7.99987V12.0001H142.823V19.9999H120.533V23.9999H152.533V32H104.533V0H152.533V7.99987H120.533Z" fill="#9C1F2E"/>
    <path d="M172.801 7.99987V23.9999H204.801V32H156.801V0H204.801V7.99987H172.801Z" fill="#9C1F2E"/>
</svg>
