<svg width="130" height="22" viewBox="0 0 130 22" fill="none" xmlns="http://www.w3.org/2000/svg">
<path fill-rule="evenodd" clip-rule="evenodd" d="M48.6892 4.01168V2H51.9988V4.01168H48.6892ZM45.3147 5.37445H30V13.3563H42.0052V16.0169H30V18.6775H45.3147V10.6957H33.3095V8.03506H45.3147V5.37445ZM51.9988 5.37445H48.6892V18.7424H51.9988V5.37445ZM58.6826 18.6775H55.3731V5.37445H74.7112V18.6775H71.3368V8.03506H66.6645V18.6775H63.3549V8.03506H58.6826V18.6775ZM77.7612 5.37445V18.7424H81.0707V14.0701H91.0642V5.37445H77.7612ZM87.7547 11.1499H81.1356V8.03506H87.7547V11.1499ZM93.8547 2H97.1642V18.6775H93.8547V2ZM100.344 18.6775H112.998V16.0169H103.654V13.2265H112.609V10.5659H103.654V8.03506H106.963H112.998V5.37445H100.344V18.6775ZM129.676 5.30955L124.289 11.7988L130 18.6775H126.171L125.003 17.3147L122.408 14.0701H122.213L119.617 17.3147L118.514 18.6775H114.62L120.331 11.7988L114.945 5.30955H118.838L120.007 6.6723L122.278 9.59248H122.408L124.679 6.73719L125.847 5.30955H129.676Z" fill="white"/>
<path fill-rule="evenodd" clip-rule="evenodd" d="M10.6322 12.3708H15.7811V15.7811H0V0H18.6564V3.47719H10.1641C8.49236 3.47719 3.47719 3.41032 3.47719 3.41032V6.55316V9.62913C3.47719 11.0334 3.41032 12.5045 3.41032 12.5045L10.6322 12.3708ZM3.47777 22V18.5897H10.2315L18.657 18.6566C18.657 18.6566 18.5902 16.7842 18.5902 15.5137V12.4377C18.5902 10.8998 18.657 9.56238 18.657 9.56238C18.657 9.56238 13.9093 9.62924 10.2984 9.62924H6.2194V6.21893H22.0005V22H21.8667H3.47777Z" fill="#F05E4A"/>
</svg>
